<?xml version="1.0" encoding="utf-8"?>
<!-- Generator: Adobe Illustrator 17.0.0, SVG Export Plug-In . SVG Version: 6.00 Build 0)  -->
<!DOCTYPE svg PUBLIC "-//W3C//DTD SVG 1.1//EN" "http://www.w3.org/Graphics/SVG/1.1/DTD/svg11.dtd">
<svg version="1.1" id="Layer_1" xmlns="http://www.w3.org/2000/svg" xmlns:xlink="http://www.w3.org/1999/xlink" x="0px" y="0px"
	 width="1280px" height="250px" viewBox="0 0 1280 250" enable-background="new 0 0 1280 250" xml:space="preserve">
<rect x="-13.5" y="-244.5" fill="#FFFFFF" stroke="#000000" stroke-miterlimit="10" width="1307" height="667"/>
<g>
	<rect x="216.829" y="52.415" fill="none" width="846.341" height="73.171"/>
	<path fill="#EF078C" d="M302.25,109.942c-4.993,0-7.488-1.896-7.488-5.688V86.902c0-3.791,2.495-5.688,7.488-5.688h11.16v-5.616
		c0-0.095-0.048-0.144-0.144-0.144h-3.384c-0.097,0-0.144,0.048-0.144,0.144v2.664h-14.976v-8.496c0-3.888,2.495-5.832,7.488-5.832
		h18.648c4.992,0,7.488,1.944,7.488,5.832v40.176H302.25z M313.411,91.294h-3.528c-0.097,0-0.144,0.048-0.144,0.144v6.912
		c0,0.097,0.047,0.144,0.144,0.144h3.528V91.294z"/>
	<path fill="#EF078C" d="M364.242,109.942l-3.744-23.04l-3.816,23.04H337.89l-7.488-46.008h15.408l3.816,25.848l3.744-25.848h14.904
		l3.672,25.848l3.816-25.848h14.472l-7.488,46.008H364.242z"/>
	<path fill="#EF078C" d="M399.665,109.942c-4.993,0-7.488-1.896-7.488-5.688V69.767c0-3.888,2.495-5.832,7.488-5.832h18.648
		c4.992,0,7.488,1.944,7.488,5.832v22.968h-18.648v5.616c0,0.097,0.047,0.144,0.144,0.144h3.384c0.096,0,0.144-0.047,0.144-0.144
		v-2.736h14.976v8.64c0,3.792-2.497,5.688-7.488,5.688H399.665z M410.825,75.598c0-0.095-0.048-0.144-0.144-0.144h-3.384
		c-0.097,0-0.144,0.048-0.144,0.144v6.408h3.672V75.598z"/>
	<path fill="#EF078C" d="M436.745,109.942c-4.993,0-7.488-1.896-7.488-5.688v-8.64h14.976v2.736c0,0.097,0.047,0.144,0.144,0.144
		h3.384c0.096,0,0.144-0.047,0.144-0.144v-5.472c0-0.096-0.048-0.144-0.144-0.144h-11.016c-4.993,0-7.488-1.944-7.488-5.832V69.767
		c0-3.888,2.495-5.832,7.488-5.832h18.648c4.992,0,7.488,1.944,7.488,5.832v8.496h-14.976v-2.664c0-0.095-0.048-0.144-0.144-0.144
		h-3.384c-0.097,0-0.144,0.048-0.144,0.144v5.472c0,0.097,0.047,0.144,0.144,0.144h11.016c4.992,0,7.488,1.897,7.488,5.688v17.352
		c0,3.792-2.497,5.688-7.488,5.688H436.745z"/>
	<path fill="#EF078C" d="M473.825,109.942c-4.993,0-7.488-1.896-7.488-5.688V69.767c0-3.888,2.495-5.832,7.488-5.832h18.648
		c4.992,0,7.488,1.944,7.488,5.832v34.488c0,3.792-2.497,5.688-7.488,5.688H473.825z M484.985,75.598
		c0-0.095-0.048-0.144-0.144-0.144h-3.384c-0.097,0-0.144,0.048-0.144,0.144v22.752c0,0.097,0.047,0.144,0.144,0.144h3.384
		c0.096,0,0.144-0.047,0.144-0.144V75.598z"/>
	<path fill="#EF078C" d="M548.489,124.271c-0.912,0-1.812-0.157-2.7-0.468c-0.889-0.313-1.692-0.732-2.412-1.26
		c-0.72-0.529-1.296-1.141-1.728-1.836c-0.432-0.697-0.648-1.404-0.648-2.124V75.598c0-0.095-0.048-0.144-0.144-0.144h-3.528
		c-0.097,0-0.144,0.048-0.144,0.144v34.344h-14.976V75.598c0-0.095-0.048-0.144-0.144-0.144h-3.384
		c-0.097,0-0.144,0.048-0.144,0.144v34.344h-14.976V63.935h14.976v2.952c0.911-0.959,2.219-1.692,3.924-2.196
		c1.703-0.504,3.636-0.756,5.796-0.756c2.208,0,3.924,0.288,5.148,0.864c1.224,0.576,2.244,1.44,3.06,2.592
		c1.104-1.392,2.484-2.315,4.14-2.772c1.656-0.456,3.66-0.684,6.012-0.684c1.296,0,2.507,0.156,3.636,0.468
		c1.127,0.313,2.099,0.756,2.916,1.332c0.815,0.576,1.464,1.26,1.944,2.052c0.479,0.792,0.72,1.645,0.72,2.556v42.336
		c0,0.096,0.047,0.144,0.144,0.144h37.008v11.448H548.489z M566.85,109.942c-4.993,0-7.488-1.896-7.488-5.688V69.767
		c0-3.888,2.496-5.832,7.488-5.832h18.648c4.992,0,7.488,1.944,7.488,5.832v22.968h-18.648v5.616c0,0.097,0.047,0.144,0.144,0.144
		h3.384c0.096,0,0.144-0.047,0.144-0.144v-2.736h14.976v8.64c0,3.792-2.496,5.688-7.488,5.688H566.85z M578.009,75.598
		c0-0.095-0.048-0.144-0.144-0.144h-3.384c-0.097,0-0.144,0.048-0.144,0.144v6.408h3.672V75.598z"/>
	<path fill="#07AD3E" d="M619.984,109.942c-4.993,0-7.488-1.896-7.488-5.688V69.767c0-3.888,2.495-5.832,7.488-5.832h18.648
		c4.991,0,7.487,1.944,7.487,5.832v13.608h-14.976v-7.776c0-0.095-0.048-0.144-0.144-0.144h-3.384c-0.097,0-0.144,0.048-0.144,0.144
		v22.752c0,0.097,0.047,0.144,0.144,0.144H631c0.096,0,0.144-0.047,0.144-0.144V87.623h14.976v16.632
		c0,3.792-2.496,5.688-7.487,5.688H619.984z"/>
	<path fill="#07AD3E" d="M675.929,124.271c-5.04,0-7.561-1.897-7.561-5.688V75.598c0-0.095-0.048-0.144-0.144-0.144h-3.528v34.488
		h-14.976V52.415h14.976v11.52h11.16c4.992,0,7.488,1.944,7.488,5.832v42.912c0,0.096,0.047,0.144,0.144,0.144h37.009v11.448
		H675.929z M694.36,109.942c-4.992,0-7.487-1.896-7.487-5.688V69.767c0-3.888,2.495-5.832,7.487-5.832h18.648
		c4.991,0,7.488,1.944,7.488,5.832v22.968h-18.648v5.616c0,0.097,0.047,0.144,0.144,0.144h3.385c0.096,0,0.144-0.047,0.144-0.144
		v-2.736h14.977v8.64c0,3.792-2.497,5.688-7.488,5.688H694.36z M705.521,75.598c0-0.095-0.048-0.144-0.144-0.144h-3.385
		c-0.097,0-0.144,0.048-0.144,0.144v6.408h3.672V75.598z"/>
	<path fill="#07AD3E" d="M731.439,109.942c-4.992,0-7.488-1.896-7.488-5.688V86.902c0-3.791,2.496-5.688,7.488-5.688h11.16v-5.616
		c0-0.095-0.049-0.144-0.144-0.144h-3.385c-0.097,0-0.144,0.048-0.144,0.144v2.664h-14.977v-8.496c0-3.888,2.496-5.832,7.488-5.832
		h18.648c4.991,0,7.487,1.944,7.487,5.832v40.176H731.439z M742.6,91.294h-3.528c-0.097,0-0.144,0.048-0.144,0.144v6.912
		c0,0.097,0.047,0.144,0.144,0.144h3.528V91.294z"/>
	<path fill="#07AD3E" d="M770.967,109.942c-4.992,0-7.488-1.896-7.488-5.688V78.262h-3.672V66.886h3.672v-2.952h14.977v2.952h18.647
		v11.376h-18.647v20.088c0,0.097,0.047,0.144,0.144,0.144h3.456c0.096,0,0.145-0.047,0.145-0.144V81.214h14.903v23.04
		c0,3.792-2.496,5.688-7.487,5.688H770.967z"/>
	<path fill="#07AD3E" d="M808.118,109.942c-4.992,0-7.488-1.896-7.488-5.688v-8.64h14.977v2.736c0,0.097,0.047,0.144,0.144,0.144
		h3.385c0.095,0,0.144-0.047,0.144-0.144v-5.472c0-0.096-0.049-0.144-0.144-0.144h-11.017c-4.992,0-7.488-1.944-7.488-5.832V69.767
		c0-3.888,2.496-5.832,7.488-5.832h18.648c4.991,0,7.487,1.944,7.487,5.832v8.496h-14.976v-2.664c0-0.095-0.049-0.144-0.144-0.144
		h-3.385c-0.097,0-0.144,0.048-0.144,0.144v5.472c0,0.097,0.047,0.144,0.144,0.144h11.017c4.991,0,7.487,1.897,7.487,5.688v17.352
		c0,3.792-2.496,5.688-7.487,5.688H808.118z"/>
	<path fill="#07AD3E" d="M864.063,124.271c-5.04,0-7.561-1.897-7.561-5.688V75.598c0-0.095-0.048-0.144-0.144-0.144h-3.528v34.488
		h-14.976V52.415h14.976v11.52h11.16c4.992,0,7.488,1.944,7.488,5.832v42.912c0,0.096,0.047,0.144,0.144,0.144h37.009v11.448
		H864.063z M882.494,109.942c-4.992,0-7.487-1.896-7.487-5.688V69.767c0-3.888,2.495-5.832,7.487-5.832h18.648
		c4.991,0,7.488,1.944,7.488,5.832v22.968h-18.648v5.616c0,0.097,0.047,0.144,0.144,0.144h3.385c0.096,0,0.144-0.047,0.144-0.144
		v-2.736h14.977v8.64c0,3.792-2.497,5.688-7.488,5.688H882.494z M893.654,75.598c0-0.095-0.048-0.144-0.144-0.144h-3.385
		c-0.097,0-0.144,0.048-0.144,0.144v6.408h3.672V75.598z"/>
	<path fill="#07AD3E" d="M919.573,109.942c-4.992,0-7.488-1.896-7.488-5.688V69.767c0-3.888,2.496-5.832,7.488-5.832h18.648
		c4.991,0,7.487,1.944,7.487,5.832v22.968h-18.647v5.616c0,0.097,0.047,0.144,0.144,0.144h3.385c0.095,0,0.144-0.047,0.144-0.144
		v-2.736h14.976v8.64c0,3.792-2.496,5.688-7.487,5.688H919.573z M930.733,75.598c0-0.095-0.049-0.144-0.144-0.144h-3.385
		c-0.097,0-0.144,0.048-0.144,0.144v6.408h3.672V75.598z"/>
	<path fill="#07AD3E" d="M959.029,109.942c-4.992,0-7.488-1.896-7.488-5.688V78.262h-3.672V66.886h3.672v-2.952h14.977v2.952h18.647
		v11.376h-18.647v20.088c0,0.097,0.047,0.144,0.144,0.144h3.456c0.096,0,0.145-0.047,0.145-0.144V81.214h14.903v23.04
		c0,3.792-2.496,5.688-7.487,5.688H959.029z"/>
</g>
<g>
	<rect x="790.854" y="133.692" fill="none" width="218.293" height="40.615"/>
	<path fill="#777777" d="M826.873,148.62v4.8h-6.815v13.872h-5.28v-33.6h13.968v4.8h-8.688v10.128H826.873z"/>
	<path fill="#777777" d="M832.921,135.516c1.376-1.471,3.36-2.208,5.952-2.208s4.575,0.737,5.952,2.208
		c1.375,1.473,2.063,3.553,2.063,6.24v17.472c0,2.688-0.688,4.769-2.063,6.24c-1.377,1.473-3.36,2.208-5.952,2.208
		s-4.576-0.735-5.952-2.208c-1.376-1.472-2.064-3.552-2.064-6.24v-17.472C830.856,139.068,831.545,136.988,832.921,135.516z
		 M838.873,162.876c1.824,0,2.736-1.104,2.736-3.312V141.42c0-2.208-0.912-3.312-2.736-3.312s-2.736,1.104-2.736,3.312v18.145
		C836.137,161.772,837.049,162.876,838.873,162.876z"/>
	<path fill="#777777" d="M860.953,165.756c-0.064-0.479-0.097-1.344-0.097-2.592v-5.28c0-1.536-0.272-2.632-0.815-3.288
		c-0.545-0.655-1.425-0.983-2.641-0.983h-1.823v13.68h-5.28v-33.6h7.968c2.72,0,4.704,0.632,5.952,1.896
		c1.248,1.265,1.872,3.209,1.872,5.832v2.64c0,3.456-1.152,5.729-3.456,6.816c1.248,0.513,2.144,1.368,2.688,2.568
		c0.544,1.199,0.816,2.729,0.816,4.584v5.184c0,0.96,0.031,1.736,0.096,2.328c0.064,0.593,0.224,1.176,0.48,1.752h-5.376
		C861.145,166.748,861.017,166.236,860.953,165.756z M855.577,148.812h2.063c1.056,0,1.848-0.271,2.376-0.815
		s0.792-1.456,0.792-2.736v-3.312c0-1.216-0.216-2.096-0.647-2.641c-0.433-0.543-1.112-0.815-2.04-0.815h-2.544V148.812z"/>
	<path fill="#777777" d="M892.344,159.228c0,2.721-0.672,4.809-2.016,6.265s-3.296,2.184-5.856,2.184s-4.512-0.728-5.855-2.184
		s-2.017-3.544-2.017-6.265v-17.472c0-2.72,0.673-4.808,2.017-6.264s3.295-2.185,5.855-2.185s4.513,0.729,5.856,2.185
		s2.016,3.544,2.016,6.264v3.264h-4.991v-3.6c0-2.208-0.912-3.312-2.736-3.312s-2.736,1.104-2.736,3.312v18.145
		c0,2.176,0.912,3.264,2.736,3.264s2.736-1.088,2.736-3.264v-4.801h4.991V159.228z"/>
	<path fill="#777777" d="M897.191,135.516c1.376-1.471,3.36-2.208,5.952-2.208s4.575,0.737,5.952,2.208
		c1.375,1.473,2.063,3.553,2.063,6.24v17.472c0,2.688-0.688,4.769-2.063,6.24c-1.377,1.473-3.36,2.208-5.952,2.208
		s-4.576-0.735-5.952-2.208c-1.376-1.472-2.064-3.552-2.064-6.24v-17.472C895.127,139.068,895.815,136.988,897.191,135.516z
		 M903.144,162.876c1.824,0,2.736-1.104,2.736-3.312V141.42c0-2.208-0.912-3.312-2.736-3.312s-2.736,1.104-2.736,3.312v18.145
		C900.407,161.772,901.319,162.876,903.144,162.876z"/>
	<path fill="#777777" d="M922.919,133.692c2.624,0,4.592,0.704,5.904,2.111c1.312,1.409,1.968,3.473,1.968,6.192v16.992
		c0,2.72-0.656,4.784-1.968,6.191c-1.313,1.409-3.28,2.112-5.904,2.112h-8.352v-33.6H922.919z M919.848,162.492h2.976
		c0.864,0,1.527-0.256,1.992-0.769c0.463-0.511,0.695-1.344,0.695-2.496v-17.472c0-1.152-0.232-1.983-0.695-2.496
		c-0.465-0.512-1.128-0.768-1.992-0.768h-2.976V162.492z"/>
	<path fill="#777777" d="M946.679,147.852v4.801h-7.248v9.84h9.12v4.8h-14.4v-33.6h14.4v4.8h-9.12v9.359H946.679z"/>
	<path fill="#777777" d="M962.471,165.756c-0.064-0.479-0.096-1.344-0.096-2.592v-5.28c0-1.536-0.272-2.632-0.816-3.288
		c-0.544-0.655-1.424-0.983-2.64-0.983h-1.824v13.68h-5.28v-33.6h7.969c2.719,0,4.703,0.632,5.951,1.896
		c1.248,1.265,1.872,3.209,1.872,5.832v2.64c0,3.456-1.151,5.729-3.456,6.816c1.248,0.513,2.144,1.368,2.688,2.568
		c0.544,1.199,0.815,2.729,0.815,4.584v5.184c0,0.96,0.032,1.736,0.097,2.328c0.063,0.593,0.224,1.176,0.479,1.752h-5.376
		C962.663,166.748,962.534,166.236,962.471,165.756z M957.095,148.812h2.064c1.056,0,1.848-0.271,2.376-0.815
		c0.527-0.544,0.792-1.456,0.792-2.736v-3.312c0-1.216-0.217-2.096-0.648-2.641c-0.432-0.543-1.112-0.815-2.04-0.815h-2.544V148.812
		z"/>
	<path fill="#777777" d="M972.406,135.492c1.313-1.456,3.248-2.185,5.809-2.185c2.56,0,4.495,0.729,5.808,2.185
		c1.312,1.456,1.968,3.544,1.968,6.264v1.056h-4.991v-1.392c0-1.152-0.225-1.992-0.672-2.52c-0.449-0.528-1.104-0.792-1.969-0.792
		c-0.863,0-1.52,0.264-1.968,0.792c-0.448,0.527-0.672,1.367-0.672,2.52c0,1.408,0.376,2.64,1.128,3.696
		c0.752,1.056,1.88,2.256,3.384,3.6c1.248,1.152,2.256,2.168,3.024,3.048c0.768,0.881,1.423,1.944,1.968,3.192
		c0.544,1.248,0.816,2.672,0.816,4.271c0,2.721-0.673,4.809-2.017,6.265s-3.296,2.184-5.855,2.184c-2.561,0-4.513-0.728-5.856-2.184
		s-2.016-3.544-2.016-6.265v-2.063h4.992v2.4c0,2.176,0.911,3.264,2.735,3.264s2.736-1.088,2.736-3.264
		c0-1.408-0.377-2.641-1.128-3.696c-0.752-1.057-1.881-2.256-3.384-3.601c-1.248-1.151-2.257-2.167-3.024-3.048
		c-0.768-0.88-1.424-1.943-1.968-3.191c-0.545-1.248-0.816-2.672-0.816-4.272C970.438,139.036,971.094,136.948,972.406,135.492z"/>
</g>
<g>
</g>
<g>
</g>
<g>
</g>
<g>
</g>
<g>
</g>
<g>
</g>
<g>
</g>
<g>
</g>
<g>
</g>
<g>
</g>
<g>
</g>
<g>
</g>
<g>
</g>
<g>
</g>
<g>
</g>
</svg>
