<?xml version="1.0" encoding="utf-8"?>
<!-- Generator: Adobe Illustrator 17.0.0, SVG Export Plug-In . SVG Version: 6.00 Build 0)  -->
<!DOCTYPE svg PUBLIC "-//W3C//DTD SVG 1.1//EN" "http://www.w3.org/Graphics/SVG/1.1/DTD/svg11.dtd">
<svg version="1.1" id="Layer_1" xmlns="http://www.w3.org/2000/svg" xmlns:xlink="http://www.w3.org/1999/xlink" x="0px" y="0px"
	 width="1280px" height="640px" viewBox="0 0 1280 640" enable-background="new 0 0 1280 640" xml:space="preserve">
<rect x="-13.5" y="-13.5" fill="#FFFFFF" stroke="#000000" stroke-miterlimit="10" width="1307" height="667"/>
<g>
	<rect x="216.829" y="219.39" fill="none" width="846.341" height="201.22"/>
	<path fill="#EF078C" d="M302.25,276.918c-4.993,0-7.488-1.896-7.488-5.688v-17.352c0-3.791,2.495-5.688,7.488-5.688h11.16v-5.616
		c0-0.095-0.048-0.144-0.144-0.144h-3.384c-0.097,0-0.144,0.048-0.144,0.144v2.664h-14.976v-8.496c0-3.888,2.495-5.832,7.488-5.832
		h18.648c4.992,0,7.488,1.944,7.488,5.832v40.176H302.25z M313.411,258.27h-3.528c-0.097,0-0.144,0.048-0.144,0.144v6.912
		c0,0.097,0.047,0.144,0.144,0.144h3.528V258.27z"/>
	<path fill="#EF078C" d="M364.242,276.918l-3.744-23.04l-3.816,23.04H337.89l-7.488-46.008h15.408l3.816,25.848l3.744-25.848h14.904
		l3.672,25.848l3.816-25.848h14.472l-7.488,46.008H364.242z"/>
	<path fill="#EF078C" d="M399.665,276.918c-4.993,0-7.488-1.896-7.488-5.688v-34.488c0-3.888,2.495-5.832,7.488-5.832h18.648
		c4.992,0,7.488,1.944,7.488,5.832v22.968h-18.648v5.616c0,0.097,0.047,0.144,0.144,0.144h3.384c0.096,0,0.144-0.047,0.144-0.144
		v-2.736h14.976v8.64c0,3.792-2.497,5.688-7.488,5.688H399.665z M410.825,242.574c0-0.095-0.048-0.144-0.144-0.144h-3.384
		c-0.097,0-0.144,0.048-0.144,0.144v6.408h3.672V242.574z"/>
	<path fill="#EF078C" d="M436.745,276.918c-4.993,0-7.488-1.896-7.488-5.688v-8.64h14.976v2.736c0,0.097,0.047,0.144,0.144,0.144
		h3.384c0.096,0,0.144-0.047,0.144-0.144v-5.472c0-0.096-0.048-0.144-0.144-0.144h-11.016c-4.993,0-7.488-1.944-7.488-5.832v-17.136
		c0-3.888,2.495-5.832,7.488-5.832h18.648c4.992,0,7.488,1.944,7.488,5.832v8.496h-14.976v-2.664c0-0.095-0.048-0.144-0.144-0.144
		h-3.384c-0.097,0-0.144,0.048-0.144,0.144v5.472c0,0.097,0.047,0.144,0.144,0.144h11.016c4.992,0,7.488,1.897,7.488,5.688v17.352
		c0,3.792-2.497,5.688-7.488,5.688H436.745z"/>
	<path fill="#EF078C" d="M473.825,276.918c-4.993,0-7.488-1.896-7.488-5.688v-34.488c0-3.888,2.495-5.832,7.488-5.832h18.648
		c4.992,0,7.488,1.944,7.488,5.832v34.488c0,3.792-2.497,5.688-7.488,5.688H473.825z M484.985,242.574
		c0-0.095-0.048-0.144-0.144-0.144h-3.384c-0.097,0-0.144,0.048-0.144,0.144v22.752c0,0.097,0.047,0.144,0.144,0.144h3.384
		c0.096,0,0.144-0.047,0.144-0.144V242.574z"/>
	<path fill="#EF078C" d="M548.489,291.246c-0.912,0-1.812-0.157-2.7-0.468c-0.889-0.313-1.692-0.732-2.412-1.26
		c-0.72-0.529-1.296-1.141-1.728-1.836c-0.432-0.697-0.648-1.404-0.648-2.124v-42.984c0-0.095-0.048-0.144-0.144-0.144h-3.528
		c-0.097,0-0.144,0.048-0.144,0.144v34.344h-14.976v-34.344c0-0.095-0.048-0.144-0.144-0.144h-3.384
		c-0.097,0-0.144,0.048-0.144,0.144v34.344h-14.976V230.91h14.976v2.952c0.911-0.959,2.219-1.692,3.924-2.196
		c1.703-0.504,3.636-0.756,5.796-0.756c2.208,0,3.924,0.288,5.148,0.864c1.224,0.576,2.244,1.44,3.06,2.592
		c1.104-1.392,2.484-2.315,4.14-2.772c1.656-0.456,3.66-0.684,6.012-0.684c1.296,0,2.507,0.156,3.636,0.468
		c1.127,0.313,2.099,0.756,2.916,1.332c0.815,0.576,1.464,1.26,1.944,2.052c0.479,0.792,0.72,1.645,0.72,2.556v42.336
		c0,0.096,0.047,0.144,0.144,0.144h37.008v11.448H548.489z M566.85,276.918c-4.993,0-7.488-1.896-7.488-5.688v-34.488
		c0-3.888,2.496-5.832,7.488-5.832h18.648c4.992,0,7.488,1.944,7.488,5.832v22.968h-18.648v5.616c0,0.097,0.047,0.144,0.144,0.144
		h3.384c0.096,0,0.144-0.047,0.144-0.144v-2.736h14.976v8.64c0,3.792-2.496,5.688-7.488,5.688H566.85z M578.009,242.574
		c0-0.095-0.048-0.144-0.144-0.144h-3.384c-0.097,0-0.144,0.048-0.144,0.144v6.408h3.672V242.574z"/>
	<path fill="#07AD3E" d="M619.984,276.918c-4.993,0-7.488-1.896-7.488-5.688v-34.488c0-3.888,2.495-5.832,7.488-5.832h18.648
		c4.991,0,7.487,1.944,7.487,5.832v13.608h-14.976v-7.776c0-0.095-0.048-0.144-0.144-0.144h-3.384c-0.097,0-0.144,0.048-0.144,0.144
		v22.752c0,0.097,0.047,0.144,0.144,0.144H631c0.096,0,0.144-0.047,0.144-0.144v-10.728h14.976v16.632
		c0,3.792-2.496,5.688-7.487,5.688H619.984z"/>
	<path fill="#07AD3E" d="M675.929,291.246c-5.04,0-7.561-1.897-7.561-5.688v-42.984c0-0.095-0.048-0.144-0.144-0.144h-3.528v34.488
		h-14.976V219.39h14.976v11.52h11.16c4.992,0,7.488,1.944,7.488,5.832v42.912c0,0.096,0.047,0.144,0.144,0.144h37.009v11.448
		H675.929z M694.36,276.918c-4.992,0-7.487-1.896-7.487-5.688v-34.488c0-3.888,2.495-5.832,7.487-5.832h18.648
		c4.991,0,7.488,1.944,7.488,5.832v22.968h-18.648v5.616c0,0.097,0.047,0.144,0.144,0.144h3.385c0.096,0,0.144-0.047,0.144-0.144
		v-2.736h14.977v8.64c0,3.792-2.497,5.688-7.488,5.688H694.36z M705.521,242.574c0-0.095-0.048-0.144-0.144-0.144h-3.385
		c-0.097,0-0.144,0.048-0.144,0.144v6.408h3.672V242.574z"/>
	<path fill="#07AD3E" d="M731.439,276.918c-4.992,0-7.488-1.896-7.488-5.688v-17.352c0-3.791,2.496-5.688,7.488-5.688h11.16v-5.616
		c0-0.095-0.049-0.144-0.144-0.144h-3.385c-0.097,0-0.144,0.048-0.144,0.144v2.664h-14.977v-8.496c0-3.888,2.496-5.832,7.488-5.832
		h18.648c4.991,0,7.487,1.944,7.487,5.832v40.176H731.439z M742.6,258.27h-3.528c-0.097,0-0.144,0.048-0.144,0.144v6.912
		c0,0.097,0.047,0.144,0.144,0.144h3.528V258.27z"/>
	<path fill="#07AD3E" d="M770.967,276.918c-4.992,0-7.488-1.896-7.488-5.688v-25.992h-3.672v-11.376h3.672v-2.952h14.977v2.952
		h18.647v11.376h-18.647v20.088c0,0.097,0.047,0.144,0.144,0.144h3.456c0.096,0,0.145-0.047,0.145-0.144V248.19h14.903v23.04
		c0,3.792-2.496,5.688-7.487,5.688H770.967z"/>
	<path fill="#07AD3E" d="M808.118,276.918c-4.992,0-7.488-1.896-7.488-5.688v-8.64h14.977v2.736c0,0.097,0.047,0.144,0.144,0.144
		h3.385c0.095,0,0.144-0.047,0.144-0.144v-5.472c0-0.096-0.049-0.144-0.144-0.144h-11.017c-4.992,0-7.488-1.944-7.488-5.832v-17.136
		c0-3.888,2.496-5.832,7.488-5.832h18.648c4.991,0,7.487,1.944,7.487,5.832v8.496h-14.976v-2.664c0-0.095-0.049-0.144-0.144-0.144
		h-3.385c-0.097,0-0.144,0.048-0.144,0.144v5.472c0,0.097,0.047,0.144,0.144,0.144h11.017c4.991,0,7.487,1.897,7.487,5.688v17.352
		c0,3.792-2.496,5.688-7.487,5.688H808.118z"/>
	<path fill="#07AD3E" d="M864.063,291.246c-5.04,0-7.561-1.897-7.561-5.688v-42.984c0-0.095-0.048-0.144-0.144-0.144h-3.528v34.488
		h-14.976V219.39h14.976v11.52h11.16c4.992,0,7.488,1.944,7.488,5.832v42.912c0,0.096,0.047,0.144,0.144,0.144h37.009v11.448
		H864.063z M882.494,276.918c-4.992,0-7.487-1.896-7.487-5.688v-34.488c0-3.888,2.495-5.832,7.487-5.832h18.648
		c4.991,0,7.488,1.944,7.488,5.832v22.968h-18.648v5.616c0,0.097,0.047,0.144,0.144,0.144h3.385c0.096,0,0.144-0.047,0.144-0.144
		v-2.736h14.977v8.64c0,3.792-2.497,5.688-7.488,5.688H882.494z M893.654,242.574c0-0.095-0.048-0.144-0.144-0.144h-3.385
		c-0.097,0-0.144,0.048-0.144,0.144v6.408h3.672V242.574z"/>
	<path fill="#07AD3E" d="M919.573,276.918c-4.992,0-7.488-1.896-7.488-5.688v-34.488c0-3.888,2.496-5.832,7.488-5.832h18.648
		c4.991,0,7.487,1.944,7.487,5.832v22.968h-18.647v5.616c0,0.097,0.047,0.144,0.144,0.144h3.385c0.095,0,0.144-0.047,0.144-0.144
		v-2.736h14.976v8.64c0,3.792-2.496,5.688-7.487,5.688H919.573z M930.733,242.574c0-0.095-0.049-0.144-0.144-0.144h-3.385
		c-0.097,0-0.144,0.048-0.144,0.144v6.408h3.672V242.574z"/>
	<path fill="#07AD3E" d="M959.029,276.918c-4.992,0-7.488-1.896-7.488-5.688v-25.992h-3.672v-11.376h3.672v-2.952h14.977v2.952
		h18.647v11.376h-18.647v20.088c0,0.097,0.047,0.144,0.144,0.144h3.456c0.096,0,0.145-0.047,0.145-0.144V248.19h14.903v23.04
		c0,3.792-2.496,5.688-7.487,5.688H959.029z"/>
</g>
<g>
	<rect x="794.317" y="306.585" fill="none" width="218.293" height="54.878"/>
	<path fill="#777777" d="M830.337,321.514v4.8h-6.816v13.872h-5.28v-33.6h13.969v4.8h-8.688v10.128H830.337z"/>
	<path fill="#777777" d="M836.384,308.409c1.376-1.471,3.36-2.208,5.952-2.208c2.593,0,4.576,0.737,5.952,2.208
		c1.376,1.473,2.064,3.553,2.064,6.24v17.472c0,2.688-0.688,4.769-2.064,6.24c-1.376,1.473-3.359,2.208-5.952,2.208
		c-2.592,0-4.576-0.735-5.952-2.208c-1.376-1.472-2.063-3.552-2.063-6.24v-17.472C834.32,311.962,835.008,309.882,836.384,308.409z
		 M842.336,335.77c1.824,0,2.736-1.104,2.736-3.312v-18.145c0-2.208-0.912-3.312-2.736-3.312c-1.823,0-2.735,1.104-2.735,3.312
		v18.145C839.601,334.666,840.513,335.77,842.336,335.77z"/>
	<path fill="#777777" d="M864.416,338.649c-0.064-0.479-0.096-1.344-0.096-2.592v-5.28c0-1.536-0.272-2.632-0.816-3.288
		c-0.544-0.655-1.424-0.983-2.64-0.983h-1.824v13.68h-5.28v-33.6h7.969c2.719,0,4.703,0.632,5.951,1.896
		c1.248,1.265,1.872,3.209,1.872,5.832v2.64c0,3.456-1.151,5.729-3.456,6.816c1.248,0.513,2.144,1.368,2.688,2.568
		c0.544,1.199,0.815,2.729,0.815,4.584v5.184c0,0.96,0.032,1.736,0.097,2.328c0.063,0.593,0.224,1.176,0.479,1.752H864.8
		C864.608,339.642,864.479,339.13,864.416,338.649z M859.04,321.705h2.064c1.056,0,1.848-0.271,2.376-0.815
		c0.527-0.544,0.792-1.456,0.792-2.736v-3.312c0-1.216-0.217-2.096-0.648-2.641c-0.432-0.543-1.112-0.815-2.04-0.815h-2.544V321.705
		z"/>
	<path fill="#777777" d="M895.808,332.121c0,2.721-0.672,4.809-2.017,6.265c-1.344,1.456-3.296,2.184-5.855,2.184
		c-2.561,0-4.512-0.728-5.856-2.184c-1.344-1.456-2.016-3.544-2.016-6.265v-17.472c0-2.72,0.672-4.808,2.016-6.264
		c1.345-1.456,3.296-2.185,5.856-2.185c2.56,0,4.512,0.729,5.855,2.185c1.345,1.456,2.017,3.544,2.017,6.264v3.264h-4.992v-3.6
		c0-2.208-0.912-3.312-2.736-3.312c-1.823,0-2.735,1.104-2.735,3.312v18.145c0,2.176,0.912,3.264,2.735,3.264
		c1.824,0,2.736-1.088,2.736-3.264v-4.801h4.992V332.121z"/>
	<path fill="#777777" d="M900.654,308.409c1.376-1.471,3.36-2.208,5.952-2.208c2.593,0,4.576,0.737,5.952,2.208
		c1.376,1.473,2.064,3.553,2.064,6.24v17.472c0,2.688-0.688,4.769-2.064,6.24c-1.376,1.473-3.359,2.208-5.952,2.208
		c-2.592,0-4.576-0.735-5.952-2.208c-1.376-1.472-2.063-3.552-2.063-6.24v-17.472C898.591,311.962,899.278,309.882,900.654,308.409z
		 M906.606,335.77c1.824,0,2.736-1.104,2.736-3.312v-18.145c0-2.208-0.912-3.312-2.736-3.312c-1.823,0-2.735,1.104-2.735,3.312
		v18.145C903.871,334.666,904.783,335.77,906.606,335.77z"/>
	<path fill="#777777" d="M926.383,306.586c2.623,0,4.591,0.704,5.903,2.111c1.313,1.409,1.969,3.473,1.969,6.192v16.992
		c0,2.72-0.656,4.784-1.969,6.191c-1.313,1.409-3.28,2.112-5.903,2.112h-8.353v-33.6H926.383z M923.311,335.386h2.976
		c0.864,0,1.528-0.256,1.992-0.769c0.464-0.511,0.696-1.344,0.696-2.496v-17.472c0-1.152-0.232-1.983-0.696-2.496
		c-0.464-0.512-1.128-0.768-1.992-0.768h-2.976V335.386z"/>
	<path fill="#777777" d="M950.143,320.745v4.801h-7.248v9.84h9.119v4.8h-14.399v-33.6h14.399v4.8h-9.119v9.359H950.143z"/>
	<path fill="#777777" d="M965.935,338.649c-0.064-0.479-0.097-1.344-0.097-2.592v-5.28c0-1.536-0.272-2.632-0.815-3.288
		c-0.545-0.655-1.425-0.983-2.641-0.983h-1.823v13.68h-5.28v-33.6h7.968c2.72,0,4.704,0.632,5.952,1.896
		c1.248,1.265,1.872,3.209,1.872,5.832v2.64c0,3.456-1.152,5.729-3.456,6.816c1.248,0.513,2.144,1.368,2.688,2.568
		c0.544,1.199,0.816,2.729,0.816,4.584v5.184c0,0.96,0.031,1.736,0.096,2.328c0.064,0.593,0.224,1.176,0.48,1.752h-5.376
		C966.126,339.642,965.998,339.13,965.935,338.649z M960.559,321.705h2.063c1.056,0,1.848-0.271,2.376-0.815
		s0.792-1.456,0.792-2.736v-3.312c0-1.216-0.216-2.096-0.647-2.641c-0.433-0.543-1.112-0.815-2.04-0.815h-2.544V321.705z"/>
	<path fill="#777777" d="M975.87,308.386c1.312-1.456,3.247-2.185,5.808-2.185s4.496,0.729,5.809,2.185
		c1.312,1.456,1.968,3.544,1.968,6.264v1.056h-4.992v-1.392c0-1.152-0.224-1.992-0.672-2.52c-0.448-0.528-1.104-0.792-1.968-0.792
		s-1.521,0.264-1.968,0.792c-0.449,0.527-0.673,1.367-0.673,2.52c0,1.408,0.376,2.64,1.128,3.696c0.752,1.056,1.88,2.256,3.385,3.6
		c1.248,1.152,2.256,2.168,3.023,3.048c0.769,0.881,1.424,1.944,1.969,3.192c0.543,1.248,0.815,2.672,0.815,4.271
		c0,2.721-0.672,4.809-2.016,6.265c-1.345,1.456-3.297,2.184-5.856,2.184c-2.561,0-4.512-0.728-5.855-2.184
		c-1.345-1.456-2.017-3.544-2.017-6.265v-2.063h4.992v2.4c0,2.176,0.912,3.264,2.736,3.264c1.823,0,2.735-1.088,2.735-3.264
		c0-1.408-0.376-2.641-1.128-3.696c-0.752-1.057-1.88-2.256-3.384-3.601c-1.248-1.151-2.256-2.167-3.023-3.048
		c-0.769-0.88-1.425-1.943-1.969-3.191s-0.815-2.672-0.815-4.272C973.902,311.93,974.558,309.842,975.87,308.386z"/>
</g>
<g>
</g>
<g>
</g>
<g>
</g>
<g>
</g>
<g>
</g>
<g>
</g>
<g>
</g>
<g>
</g>
<g>
</g>
<g>
</g>
<g>
</g>
<g>
</g>
<g>
</g>
<g>
</g>
<g>
</g>
</svg>
